<svg width="17" height="17" fill="none" xmlns="http://www.w3.org/2000/svg"><g clip-path="url(#a)" fill="#E74266"><path d="M8.332 5.524c-1.48 0-2.682 1.175-2.682 2.622 0 1.446 1.203 2.622 2.682 2.622 1.48 0 2.682-1.176 2.682-2.622 0-1.447-1.202-2.622-2.682-2.622ZM8.13 7.368a.609.609 0 0 0-.61.597H6.63A1.5 1.5 0 0 1 8.129 6.5v.868Z"/><path d="M16.47 7.603c-.906-1.103-4.142-4.7-8.138-4.7-3.995 0-7.231 3.597-8.138 4.7a.855.855 0 0 0 0 1.085c.907 1.103 4.143 4.701 8.138 4.701s7.232-3.598 8.139-4.7a.854.854 0 0 0 0-1.086Zm-8.138 4.34c-2.145 0-3.884-1.7-3.884-3.797 0-2.098 1.739-3.797 3.884-3.797 2.146 0 3.885 1.7 3.885 3.797 0 2.097-1.74 3.797-3.885 3.797Z"/></g><defs><clipPath id="a"><path fill="#fff" d="M0 0h16.665v16.292H0z"/></clipPath></defs></svg>