<svg width="17" height="17" fill="none" xmlns="http://www.w3.org/2000/svg"><g clip-path="url(#a)" fill="#AEAEAE"><path fill-rule="evenodd" clip-rule="evenodd" d="M7.385 5.693c-1.013.374-1.734 1.332-1.734 2.453 0 1.446 1.202 2.622 2.681 2.622 1.125 0 2.09-.68 2.488-1.641L7.385 5.693Zm3.617 2.198c-.121-1.224-1.105-2.203-2.348-2.348l2.348 2.348Zm-3.483.074c0-.325.277-.597.61-.597V6.5a1.5 1.5 0 0 0-1.498 1.465h.888Z"/><path d="m2.768 2.86.891-.892L15.081 13.39l-.891.891z"/><path fill-rule="evenodd" clip-rule="evenodd" d="M5.271 3.579C2.748 4.676.854 6.8.194 7.603a.855.855 0 0 0 0 1.085c.907 1.103 4.143 4.701 8.138 4.701 1.886 0 3.603-.801 4.986-1.764l-1.606-1.606a3.898 3.898 0 0 1-3.38 1.924c-2.145 0-3.884-1.7-3.884-3.797 0-1.447.828-2.705 2.045-3.346L5.271 3.58Zm6.846 5.427c.065-.277.1-.565.1-.86 0-2.098-1.74-3.797-3.885-3.797-.271 0-.537.027-.793.079L6.312 3.2a7.205 7.205 0 0 1 2.02-.298c3.995 0 7.232 3.598 8.139 4.701a.854.854 0 0 1 0 1.085 16.762 16.762 0 0 1-2.344 2.328l-2.01-2.01Z"/></g><defs><clipPath id="a"><path fill="#fff" d="M0 0h16.665v16.292H0z"/></clipPath></defs></svg>