<svg xmlns="http://www.w3.org/2000/svg" xmlns:xlink="http://www.w3.org/1999/xlink"><defs>
<clipPath id="clip0_1_63">
<rect width="16.6648" height="16.2917" fill="white"/>
</clipPath>

<clipPath id="clip0_1_53">
<rect width="16.6648" height="16.2917" fill="white"/>
</clipPath>
</defs><symbol id="eye-active" viewBox="0 0 17 17">
<g clip-path="url(#clip0_1_63)">
<path d="M8.3324 5.52396C6.85272 5.52396 5.65048 6.69928 5.65048 8.14582C5.65048 9.59237 6.85272 10.7677 8.3324 10.7677C9.81207 10.7677 11.0143 9.59237 11.0143 8.14582C11.0143 6.69928 9.81207 5.52396 8.3324 5.52396ZM8.12894 7.36831C7.79601 7.36831 7.51857 7.63953 7.51857 7.96501H6.63077C6.64926 7.15133 7.31512 6.50038 8.12894 6.50038V7.36831Z" fill="#E74266"/>
<path d="M16.4706 7.60338C15.5643 6.50039 12.3275 2.90212 8.33242 2.90212C4.3373 2.90212 1.10051 6.50039 0.194207 7.60338C-0.0647358 7.91077 -0.0647358 8.36282 0.194207 8.68829C1.10051 9.79128 4.3373 13.3895 8.33242 13.3895C12.3275 13.3895 15.5643 9.79128 16.4706 8.68829C16.7296 8.3809 16.7296 7.92885 16.4706 7.60338ZM8.33242 11.943C6.18689 11.943 4.44827 10.2433 4.44827 8.14584C4.44827 6.04835 6.18689 4.34866 8.33242 4.34866C10.4779 4.34866 12.2166 6.04835 12.2166 8.14584C12.2166 10.2433 10.4779 11.943 8.33242 11.943Z" fill="#E74266"/>
</g>

</symbol><symbol id="eye" viewBox="0 0 17 17">
<g clip-path="url(#clip0_1_53)">
<path fill-rule="evenodd" clip-rule="evenodd" d="M7.38527 5.69252C6.37211 6.06721 5.65051 7.0251 5.65051 8.14579C5.65051 9.59233 6.85275 10.7676 8.33243 10.7676C9.45734 10.7676 10.4219 10.0883 10.8198 9.12701L7.38527 5.69252ZM11.0018 7.89065C10.8806 6.66722 9.89696 5.68811 8.65372 5.5426L11.0018 7.89065ZM7.5186 7.96497C7.5186 7.6395 7.79604 7.36827 8.12897 7.36827V6.50034C7.31515 6.50034 6.64929 7.15129 6.6308 7.96497H7.5186Z" fill="#AEAEAE"/>
<rect x="2.76819" y="2.85949" width="1.26136" height="16.1533" transform="rotate(-45 2.76819 2.85949)" fill="#AEAEAE"/>
<path fill-rule="evenodd" clip-rule="evenodd" d="M5.27132 3.57857C2.74839 4.67553 0.853904 6.80049 0.194207 7.60336C-0.0647358 7.91075 -0.0647358 8.36279 0.194207 8.68826C1.10051 9.79125 4.3373 13.3895 8.33242 13.3895C10.2183 13.3895 11.9352 12.5877 13.3178 11.6251L11.7119 10.0192C11.0442 11.1681 9.78105 11.943 8.33242 11.943C6.18689 11.943 4.44827 10.2433 4.44827 8.14581C4.44827 6.69892 5.2756 5.44132 6.49312 4.80037L5.27132 3.57857ZM12.1166 9.00552C12.182 8.72929 12.2166 8.4415 12.2166 8.14581C12.2166 6.04833 10.4779 4.34864 8.33242 4.34864C8.06051 4.34864 7.79513 4.37594 7.53901 4.42789L6.31158 3.20047C6.95631 3.01247 7.63273 2.9021 8.33242 2.9021C12.3275 2.9021 15.5643 6.50037 16.4706 7.60336C16.7296 7.92883 16.7296 8.38087 16.4706 8.68826C16.0802 9.16347 15.2571 10.1019 14.1272 11.0161L12.1166 9.00552Z" fill="#AEAEAE"/>
</g>

</symbol></svg>